<svg width="224" height="207" viewBox="0 0 224 207" fill="none" xmlns="http://www.w3.org/2000/svg">
<path d="M115.319 81.2227C107.102 85.0772 101.727 95.2489 100.067 99.8529C118.744 81.2227 139.402 84.0773 143.646 85.7195C156.098 90.5376 153.296 100.816 153.296 108.204C164.813 95.677 162.99 92.766 168.238 79.6165C172.596 68.6954 163.257 43.9616 156.409 37.8591C150.391 36.8955 139.112 39.1435 138.977 42.3563C138.666 49.7441 125.592 76.4045 115.319 81.2227Z" fill="#163300"/>
<path d="M153.291 32.7186C149.057 31.4338 142.603 35.3954 139.906 37.5368C138.349 32.7186 115.937 13.7674 85.4309 40.4278C59.0345 63.497 81.6955 102.421 94.4581 112.058C83.75 141.609 106.598 175.979 119.672 186.578C80.8239 183.752 58.7644 144.928 53.0575 127.155C55.3403 141.074 59.9059 171.482 94.4581 186.578C122.1 198.656 136.274 189.469 139.906 183.366V136.148C139.906 128.696 130.152 128.761 125.275 129.724V123.621H178.193V129.724C167.734 129.21 166.572 133.793 167.298 136.148V192.36C132.746 212.275 92.9067 208.742 59.9059 199.748C31.5843 192.029 -4.44904 150.774 0.450952 98.2457C5.35095 45.7175 29.4053 11.8967 79.5219 2.84663C142.09 -8.45193 158.583 34.3247 153.291 32.7186Z" fill="#163300"/>
<path d="M126.214 42.9976C126.214 47.61 122.869 51.3491 118.743 51.3491C114.617 51.3491 111.273 47.61 111.273 42.9976C111.273 38.3852 114.617 34.6461 118.743 34.6461C122.869 34.6461 126.214 38.3852 126.214 42.9976Z" fill="#163300"/>
<path d="M178.193 171.358C178.193 168.331 180.447 165.878 183.227 165.878H218.966C221.746 165.878 224 168.331 224 171.358V185.056C224 188.083 221.746 190.536 218.966 190.536H183.227C180.447 190.536 178.193 188.083 178.193 185.056V171.358Z" fill="#F7FFEB"/>
<path d="M184.347 178.471V177.836C184.347 176.131 184.726 174.85 185.482 173.992C186.243 173.13 187.223 172.699 188.422 172.699C189.586 172.699 190.497 173.029 191.156 173.689C191.82 174.349 192.152 175.216 192.152 176.29V176.543H190.373V176.232C190.373 175.596 190.212 175.098 189.889 174.737C189.566 174.375 189.077 174.195 188.422 174.195C187.754 174.195 187.217 174.464 186.81 175.004C186.403 175.543 186.199 176.403 186.199 177.583V178.731C186.199 179.844 186.4 180.687 186.803 181.26C187.21 181.833 187.756 182.119 188.442 182.119C189.066 182.119 189.535 181.934 189.849 181.563C190.167 181.188 190.342 180.679 190.373 180.039V179.772H192.152L192.145 180.061C192.105 181.096 191.765 181.946 191.123 182.611C190.486 183.275 189.586 183.608 188.422 183.608C187.201 183.608 186.217 183.174 185.469 182.307C184.721 181.436 184.347 180.157 184.347 178.471Z" fill="#819974" style="mix-blend-mode:multiply"/>
<path d="M192.457 183.413L195.928 172.851H197.819L201.31 183.413H199.438L197.049 175.791C196.996 175.618 196.952 175.459 196.917 175.314C196.881 175.165 196.848 175.016 196.817 174.867H196.771C196.744 175.016 196.711 175.165 196.671 175.314C196.636 175.459 196.594 175.618 196.545 175.791L194.162 183.413H192.457ZM194.262 180.971L194.66 179.533H199.007L199.412 180.971H194.262Z" fill="#819974" style="mix-blend-mode:multiply"/>
<path d="M201.695 180.509V180.234H203.46V180.451C203.46 181.014 203.619 181.436 203.938 181.715C204.261 181.994 204.707 182.134 205.278 182.134C205.849 182.134 206.285 181.999 206.586 181.729C206.891 181.46 207.043 181.103 207.043 180.66C207.043 180.232 206.895 179.894 206.599 179.649C206.307 179.403 205.71 179.138 204.807 178.854C203.803 178.536 203.059 178.137 202.577 177.655C202.095 177.173 201.854 176.509 201.854 175.661C201.854 174.775 202.155 174.06 202.756 173.516C203.363 172.971 204.183 172.699 205.218 172.699C206.249 172.699 207.074 172.974 207.694 173.523C208.313 174.072 208.623 174.809 208.623 175.733V175.965H206.884V175.784C206.884 175.298 206.745 174.91 206.466 174.621C206.187 174.332 205.776 174.188 205.232 174.188C204.679 174.188 204.274 174.308 204.017 174.549C203.761 174.79 203.632 175.117 203.632 175.531C203.632 175.921 203.774 176.227 204.057 176.449C204.345 176.67 204.944 176.925 205.856 177.214C206.842 177.523 207.581 177.927 208.072 178.428C208.568 178.929 208.815 179.632 208.815 180.537C208.815 181.481 208.495 182.23 207.853 182.784C207.212 183.333 206.358 183.608 205.291 183.608C204.225 183.608 203.358 183.34 202.69 182.806C202.026 182.271 201.695 181.505 201.695 180.509Z" fill="#819974" style="mix-blend-mode:multiply"/>
<path d="M210.202 183.413V172.894H211.987V177.207H215.929V172.894H217.714V183.413H215.929V178.768H211.987V183.413H210.202Z" fill="#819974" style="mix-blend-mode:multiply"/>
</svg>
