<svg width="955" height="192" viewBox="0 0 955 192" fill="none" xmlns="http://www.w3.org/2000/svg">
<path d="M117.136 74.823C108.789 78.4155 103.329 87.8959 101.643 92.187C120.614 74.823 141.598 77.4836 145.909 79.0142C158.556 83.5049 155.711 93.0851 155.711 99.9708C167.409 88.295 165.558 85.5818 170.888 73.326C175.314 63.147 165.829 40.0942 158.872 34.4065C152.76 33.5083 141.303 35.6035 141.166 38.598C140.85 45.4837 127.57 70.3323 117.136 74.823Z" fill="#163300"/>
<path d="M155.705 29.6153C151.405 28.4178 144.85 32.1101 142.109 34.106C140.528 29.6153 117.763 11.952 86.7766 36.8006C59.9643 58.302 82.9823 94.581 95.946 103.562C85.0692 131.105 108.277 163.139 121.557 173.019C82.097 170.384 59.69 134.199 53.8932 117.633C56.212 130.606 60.8495 158.948 95.946 173.019C124.023 184.275 138.42 175.713 142.109 170.025V126.016C142.109 119.07 132.202 119.13 127.248 120.028V114.34H181V120.028C170.376 119.549 169.196 123.821 169.933 126.016V178.408C134.837 196.969 94.3701 193.676 60.8495 185.293C32.0818 178.099 -4.51912 139.647 0.458055 90.6891C5.43523 41.7308 29.8685 10.2085 80.7744 1.77347C144.328 -8.75723 161.08 31.1122 155.705 29.6153Z" fill="#163300"/>
<path d="M128.202 39.1957C128.202 43.4947 124.805 46.9796 120.614 46.9796C116.423 46.9796 113.025 43.4947 113.025 39.1957C113.025 34.8968 116.423 31.4118 120.614 31.4118C124.805 31.4118 128.202 34.8968 128.202 39.1957Z" fill="#163300"/>
<path d="M805 73C805 67.4772 809.477 63 815 63H945C950.523 63 955 67.4772 955 73V119C955 124.523 950.523 129 945 129H815C809.477 129 805 124.523 805 119V73Z" fill="#F7FFEB"/>
<path d="M822.4 97C822.4 94.2533 823.013 91.8 824.24 89.64C825.493 87.4533 827.187 85.76 829.32 84.56C831.48 83.3333 833.893 82.72 836.56 82.72C839.68 82.72 842.413 83.52 844.76 85.12C847.107 86.72 848.747 88.9333 849.68 91.76H843.24C842.6 90.4267 841.693 89.4267 840.52 88.76C839.373 88.0933 838.04 87.76 836.52 87.76C834.893 87.76 833.44 88.1467 832.16 88.92C830.907 89.6667 829.92 90.7333 829.2 92.12C828.507 93.5067 828.16 95.1333 828.16 97C828.16 98.84 828.507 100.467 829.2 101.88C829.92 103.267 830.907 104.347 832.16 105.12C833.44 105.867 834.893 106.24 836.52 106.24C838.04 106.24 839.373 105.907 840.52 105.24C841.693 104.547 842.6 103.533 843.24 102.2H849.68C848.747 105.053 847.107 107.28 844.76 108.88C842.44 110.453 839.707 111.24 836.56 111.24C833.893 111.24 831.48 110.64 829.32 109.44C827.187 108.213 825.493 106.52 824.24 104.36C823.013 102.2 822.4 99.7467 822.4 97Z" fill="#819974" style="mix-blend-mode:multiply"/>
<path d="M871.583 105.68H860.463L858.623 111H852.743L862.783 83.04H869.303L879.343 111H873.423L871.583 105.68ZM870.063 101.2L866.023 89.52L861.983 101.2H870.063Z" fill="#819974" style="mix-blend-mode:multiply"/>
<path d="M892.736 111.28C890.789 111.28 889.029 110.947 887.456 110.28C885.909 109.613 884.683 108.653 883.776 107.4C882.869 106.147 882.403 104.667 882.376 102.96H888.376C888.456 104.107 888.856 105.013 889.576 105.68C890.323 106.347 891.336 106.68 892.616 106.68C893.923 106.68 894.949 106.373 895.696 105.76C896.443 105.12 896.816 104.293 896.816 103.28C896.816 102.453 896.563 101.773 896.056 101.24C895.549 100.707 894.909 100.293 894.136 100C893.389 99.68 892.349 99.3333 891.016 98.96C889.203 98.4267 887.723 97.9067 886.576 97.4C885.456 96.8667 884.483 96.08 883.656 95.04C882.856 93.9733 882.456 92.56 882.456 90.8C882.456 89.1467 882.869 87.7067 883.696 86.48C884.523 85.2533 885.683 84.32 887.176 83.68C888.669 83.0133 890.376 82.68 892.296 82.68C895.176 82.68 897.509 83.3867 899.296 84.8C901.109 86.1867 902.109 88.1333 902.296 90.64H896.136C896.083 89.68 895.669 88.8933 894.896 88.28C894.149 87.64 893.149 87.32 891.896 87.32C890.803 87.32 889.923 87.6 889.256 88.16C888.616 88.72 888.296 89.5333 888.296 90.6C888.296 91.3467 888.536 91.9733 889.016 92.48C889.523 92.96 890.136 93.36 890.856 93.68C891.603 93.9733 892.643 94.32 893.976 94.72C895.789 95.2533 897.269 95.7867 898.416 96.32C899.563 96.8533 900.549 97.6533 901.376 98.72C902.203 99.7867 902.616 101.187 902.616 102.92C902.616 104.413 902.229 105.8 901.456 107.08C900.683 108.36 899.549 109.387 898.056 110.16C896.563 110.907 894.789 111.28 892.736 111.28Z" fill="#819974" style="mix-blend-mode:multiply"/>
<path d="M930.631 83.08V111H925.031V99.12H913.071V111H907.471V83.08H913.071V94.56H925.031V83.08H930.631Z" fill="#819974" style="mix-blend-mode:multiply"/>
<path d="M211 60.8V102.8C211 107 212.033 110.233 214.1 112.5C216.167 114.767 219.2 115.9 223.2 115.9C227.2 115.9 230.267 114.767 232.4 112.5C234.533 110.233 235.6 107 235.6 102.8V60.8H252.7V102.7C252.7 108.967 251.367 114.267 248.7 118.6C246.033 122.933 242.433 126.2 237.9 128.4C233.433 130.6 228.433 131.7 222.9 131.7C217.367 131.7 212.4 130.633 208 128.5C203.667 126.3 200.233 123.033 197.7 118.7C195.167 114.3 193.9 108.967 193.9 102.7V60.8H211Z" fill="#163300" style="mix-blend-mode:multiply"/>
<path d="M308.408 118.6H282.208L278.008 131H260.108L285.508 60.8H305.308L330.708 131H312.608L308.408 118.6ZM304.008 105.4L295.308 79.7L286.708 105.4H304.008Z" fill="#163300" style="mix-blend-mode:multiply"/>
<path d="M335.538 95.8C335.538 88.8667 337.038 82.7 340.038 77.3C343.038 71.8333 347.205 67.6 352.538 64.6C357.938 61.5333 364.038 60 370.838 60C379.172 60 386.305 62.2 392.238 66.6C398.172 71 402.138 77 404.138 84.6H385.338C383.938 81.6667 381.938 79.4333 379.338 77.9C376.805 76.3667 373.905 75.6 370.638 75.6C365.372 75.6 361.105 77.4333 357.838 81.1C354.572 84.7667 352.938 89.6667 352.938 95.8C352.938 101.933 354.572 106.833 357.838 110.5C361.105 114.167 365.372 116 370.638 116C373.905 116 376.805 115.233 379.338 113.7C381.938 112.167 383.938 109.933 385.338 107H404.138C402.138 114.6 398.172 120.6 392.238 125C386.305 129.333 379.172 131.5 370.838 131.5C364.038 131.5 357.938 130 352.538 127C347.205 123.933 343.038 119.7 340.038 114.3C337.038 108.9 335.538 102.733 335.538 95.8Z" fill="#163300" style="mix-blend-mode:multiply"/>
<path d="M458.31 118.6H432.11L427.91 131H410.01L435.41 60.8H455.21L480.61 131H462.51L458.31 118.6ZM453.91 105.4L445.21 79.7L436.61 105.4H453.91Z" fill="#163300" style="mix-blend-mode:multiply"/>
<path d="M567.841 60.8V131H550.741V88.9L535.041 131H521.241L505.441 88.8V131H488.341V60.8H508.541L528.241 109.4L547.741 60.8H567.841Z" fill="#163300" style="mix-blend-mode:multiply"/>
<path d="M623.838 118.6H597.638L593.438 131H575.537L600.938 60.8H620.737L646.138 131H628.037L623.838 118.6ZM619.438 105.4L610.737 79.7L602.138 105.4H619.438Z" fill="#163300" style="mix-blend-mode:multiply"/>
<path d="M714.068 60.8L689.768 107.8V131H672.668V107.8L648.368 60.8H667.768L681.368 90.2L694.868 60.8H714.068Z" fill="#163300" style="mix-blend-mode:multiply"/>
<path d="M764.658 118.6H738.458L734.258 131H716.358L741.758 60.8H761.558L786.958 131H768.858L764.658 118.6ZM760.258 105.4L751.558 79.7L742.958 105.4H760.258Z" fill="#163300" style="mix-blend-mode:multiply"/>
</svg>
